<svg id="Layer_1" data-name="Layer 1" xmlns="http://www.w3.org/2000/svg" xmlns:xlink="http://www.w3.org/1999/xlink" viewBox="0 0 275.08 223.49"><defs><style>.cls-1{mask:url(#mask);}.cls-2{mix-blend-mode:multiply;fill:url(#radial-gradient);}.cls-3{fill:#838482;}.cls-4{fill:#2b2b2b;}.cls-5{fill:#565655;}.cls-6{fill:#454545;}.cls-7{mask:url(#mask-2);}.cls-8{fill:url(#radial-gradient-2);}.cls-9{filter:url(#luminosity-noclip-2);}.cls-10{filter:url(#luminosity-noclip);}</style><filter id="luminosity-noclip" x="44.89" y="-8367" width="109.83" height="32766" filterUnits="userSpaceOnUse" color-interpolation-filters="sRGB"><feFlood flood-color="#fff" result="bg"/><feBlend in="SourceGraphic" in2="bg"/></filter><mask id="mask" x="44.89" y="-8367" width="109.83" height="32766" maskUnits="userSpaceOnUse"><g class="cls-10"/></mask><radialGradient id="radial-gradient" cx="-50.69" cy="181.84" r="201.29" gradientUnits="userSpaceOnUse"><stop offset="0" stop-color="#fff"/><stop offset="0.16" stop-color="#fcfcfc"/><stop offset="0.29" stop-color="#f2f2f2"/><stop offset="0.41" stop-color="#e1e1e1"/><stop offset="0.53" stop-color="#c9c9c9"/><stop offset="0.63" stop-color="#aaa"/><stop offset="0.74" stop-color="#848484"/><stop offset="0.84" stop-color="#585858"/><stop offset="0.94" stop-color="#252525"/><stop offset="1"/></radialGradient><filter id="luminosity-noclip-2" x="44.89" y="74.23" width="109.83" height="158.19" filterUnits="userSpaceOnUse" color-interpolation-filters="sRGB"><feFlood flood-color="#fff" result="bg"/><feBlend in="SourceGraphic" in2="bg"/></filter><mask id="mask-2" x="6.62" y="10.05" width="109.83" height="158.19" maskUnits="userSpaceOnUse"><g class="cls-9"><g transform="translate(-38.27 -64.18)"><g class="cls-1"><path class="cls-2" d="M112.21,75.63s34.2,45.92,39.5,97.1,12.15,74-61.57,50.32c-46.3-14.87-54.24-16.91-36.59-52.2S108.68,63.28,112.21,75.63Z"/></g></g></g></mask><radialGradient id="radial-gradient-2" cx="-50.69" cy="181.84" r="201.29" gradientUnits="userSpaceOnUse"><stop offset="0" stop-color="#fff"/><stop offset="0.91" stop-color="#fff"/><stop offset="1" stop-color="#fff"/></radialGradient></defs><path class="cls-3" d="M180.35,250.45c9.39,1.41,15.73-4.7,19.48-24.42s5.4-32.87,7.28-46.49.77-21.48-15-41.61-19.85-21.58-39.43-41.16C137.19,81.29,127.59,67,117.09,64.85a16.29,16.29,0,0,0-5.11,2.5C101.47,75,92.29,94.58,92.29,94.58S67.49,136.55,46,179c-6.38,14.9-8.45,22.64-7.58,28.33a525.21,525.21,0,0,0,64.87,23.17C145.13,242.47,165.32,247.16,180.35,250.45Z" transform="translate(-38.27 -64.18)"/><path class="cls-4" d="M180.35,250.45c-15-3.29-35.22-8-77-20a525.21,525.21,0,0,1-64.87-23.17c1.07,7.06,6.66,10.94,14.15,21.33,22.7,22.7,39.49,38.93,51.46,46.91,10.52,8,30.1,13.05,75.43,12,7.48-.39,15.12-1.19,22.78-2.24l-12.55-36.8A12.21,12.21,0,0,1,180.35,250.45Z" transform="translate(-38.27 -64.18)"/><path class="cls-5" d="M215.45,171.8c7.41,1.44,75.83,16.4,97.35,21.11C311.37,181.49,301.21,175,289,164.59c-12.69-10.88-84.86-58.75-121.49-80.51-23.75-13.75-39.19-22.46-50.44-19.23,10.5,2.11,20.1,16.44,35.58,31.92,19.58,19.58,23.66,21,39.43,41.16,15.19,19.39,16.79,27.4,15.21,40.12C208.48,174.47,210.81,170.9,215.45,171.8Z" transform="translate(-38.27 -64.18)"/><path class="cls-6" d="M312.8,192.91c-21.52-4.71-89.94-19.67-97.35-21.11-4.64-.9-7,2.67-8.14,6.25-.06.49-.13,1-.2,1.49-1.88,13.62-3.51,26.77-7.28,46.49-2.33,12.25-5.66,19.24-10.1,22.45l12.55,36.8c27.61-3.78,55.53-10.9,77.68-15.16,24.66-5.44,27.19-12.33,30.45-31.55A180.59,180.59,0,0,0,313,194.32C312.92,193.84,312.86,193.38,312.8,192.91Z" transform="translate(-38.27 -64.18)"/><g class="cls-7"><path class="cls-8" d="M112.21,75.63s34.2,45.92,39.5,97.1,12.15,74-61.57,50.32c-46.3-14.87-54.24-16.91-36.59-52.2S108.68,63.28,112.21,75.63Z" transform="translate(-38.27 -64.18)"/></g></svg>