<svg id="Layer_1" data-name="Layer 1" xmlns="http://www.w3.org/2000/svg" xmlns:xlink="http://www.w3.org/1999/xlink" viewBox="0 0 218.09 289.78"><defs><style>.cls-1{fill:url(#linear-gradient);}.cls-2{fill:url(#linear-gradient-2);}.cls-3{fill:#555;}.cls-4{fill:url(#linear-gradient-3);}.cls-5{fill:url(#linear-gradient-4);}.cls-6{fill:url(#linear-gradient-5);}.cls-7{fill:url(#linear-gradient-6);}.cls-8{fill:url(#linear-gradient-7);}.cls-9{fill:#565656;}</style><linearGradient id="linear-gradient" x1="143.5" y1="159.56" x2="223.93" y2="84.41" gradientTransform="translate(-56.15 86.57) rotate(-24.07)" gradientUnits="userSpaceOnUse"><stop offset="0.06" stop-color="#777"/><stop offset="0.15" stop-color="#8c8c8c"/><stop offset="0.51" stop-color="#dedede"/><stop offset="0.68" stop-color="#fff"/><stop offset="0.97" stop-color="#bebebe"/></linearGradient><linearGradient id="linear-gradient-2" x1="117.69" y1="184.83" x2="193.82" y2="113.69" xlink:href="#linear-gradient"/><linearGradient id="linear-gradient-3" x1="186.5" y1="202.59" x2="234.61" y2="297.38" gradientTransform="translate(-56.15 86.57) rotate(-24.07)" gradientUnits="userSpaceOnUse"><stop offset="0.03" stop-color="#010101"/><stop offset="0.32" stop-color="#fff"/><stop offset="0.42" stop-color="#dedede"/><stop offset="0.62" stop-color="#8b8b8b"/><stop offset="0.93" stop-color="#060606"/><stop offset="0.94" stop-color="#010101"/></linearGradient><linearGradient id="linear-gradient-4" x1="569.87" y1="149.59" x2="636.39" y2="115.78" gradientTransform="matrix(-0.89, 0.46, 0.46, 0.89, 619.07, -241.4)" xlink:href="#linear-gradient"/><linearGradient id="linear-gradient-5" x1="70.2" y1="208.44" x2="251.06" y2="116.51" xlink:href="#linear-gradient"/><linearGradient id="linear-gradient-6" x1="89.44" y1="209.44" x2="137.57" y2="304.27" xlink:href="#linear-gradient-3"/><linearGradient id="linear-gradient-7" x1="81.96" y1="335.55" x2="92.13" y2="335.55" gradientTransform="translate(148.28 -162.38) rotate(10.94)" xlink:href="#linear-gradient-3"/></defs><path class="cls-1" d="M210.54,214.67C203,210,188.84,197.93,184.81,190c-1.14-2.23-3.46-14-3.46-14L66,61l9,29.77s3.12,13.52,8.48,20.07,19.66,22.64,19.66,22.64L224.6,261.27l-3.18-42.72S213,216.18,210.54,214.67Z" transform="translate(-65.95 -30.11)"/><path class="cls-2" d="M104.17,132.41c-.12-.12-14.42-16.24-19.59-22.55s-8.16-19.34-8.19-19.47L69.06,66.13,180,176.74c.48,2.38,2.4,11.73,3.5,13.9,4.07,8,18.28,20.34,26.27,25.28,2.13,1.31,7.87,3.06,10.27,3.77l2.79,37.57Z" transform="translate(-65.95 -30.11)"/><path class="cls-3" d="M234.58,209.3a34.71,34.71,0,1,0,45.65,17.62A34.61,34.61,0,0,0,234.58,209.3Zm25.09,56.17a26.81,26.81,0,1,1,13.4-35.35A26.72,26.72,0,0,1,259.67,265.47Z" transform="translate(-65.95 -30.11)"/><path class="cls-4" d="M235.35,206.57A34.71,34.71,0,1,0,281,224.2,34.6,34.6,0,0,0,235.35,206.57Zm25.09,56.17a26.81,26.81,0,1,1,13.4-35.35A26.72,26.72,0,0,1,260.44,262.74Z" transform="translate(-65.95 -30.11)"/><path class="cls-5" d="M169.44,238.93c1-8.86.39-27.41-3.33-35.51-1.05-2.29-8.79-11.39-8.79-11.39L138.94,30.11l17.73,25.56s8.65,10.85,10.44,19.13c1.75,8.09,5.51,29.46,5.51,29.46l24.59,174.65-31.49-29S169.11,241.8,169.44,238.93Z" transform="translate(-65.95 -30.11)"/><path class="cls-6" d="M167.48,249.48c.94-2.32,3.14-7.9,3.43-10.38,1.09-9.34.3-28.12-3.46-36.3-1-2.21-7.15-9.53-8.72-11.38L141.07,35.77l14.38,20.74c.14.19,8.52,10.76,10.22,18.6s5.46,29.19,5.49,29.41l24,170.51Z" transform="translate(-65.95 -30.11)"/><path class="cls-3" d="M135.72,301.13a34.49,34.49,0,1,0,14.57-46.71A34.59,34.59,0,0,0,135.72,301.13Zm6.95-3.62a26.65,26.65,0,1,1,36,11.49A26.74,26.74,0,0,1,142.67,297.51Z" transform="translate(-65.95 -30.11)"/><path class="cls-7" d="M133.1,300a34.49,34.49,0,1,0,14.58-46.72A34.6,34.6,0,0,0,133.1,300Zm7-3.62a26.65,26.65,0,1,1,36,11.48A26.72,26.72,0,0,1,140.06,296.42Z" transform="translate(-65.95 -30.11)"/><path class="cls-8" d="M175.06,184.55a5.08,5.08,0,1,1-4-6A5.07,5.07,0,0,1,175.06,184.55Z" transform="translate(-65.95 -30.11)"/><polygon class="cls-9" points="104.49 158.54 106.35 148.9 106.34 148.9 104.39 148.5 102.52 158.18 104.49 158.54"/></svg>